#N canvas 0 23 1680 1005 12;
#X msg 767 404 invert \$1;
#X obj 758 347 tgl 15 0 empty empty empty 17 7 0 10 -262144 -1 -1 0
1;
#X obj 908 463 r level;
#X obj 974 463 r treshold;
#X floatatom 875 369 5 0 0 0 - - -;
#X obj 880 148 vsl 15 128 0 12 0 0 empty empty empty 0 -9 0 10 -262144
-1 -1 0 1;
#X msg 872 413 activeSteps \$1;
#X obj 873 327 int;
#X obj 1077 514 metro 200;
#X obj 1089 481 tgl 15 0 empty empty empty 17 7 0 10 -262144 -1 -1
1 1;
#X obj 368 590 snapshot~;
#X floatatom 336 644 5 0 0 0 - - -;
#X obj 438 589 snapshot~;
#X floatatom 406 643 5 0 0 0 - - -;
#X obj 509 589 snapshot~;
#X floatatom 477 643 5 0 0 0 - - -;
#X obj 578 589 snapshot~;
#X floatatom 546 643 5 0 0 0 - - -;
#X obj 648 588 snapshot~;
#X floatatom 616 642 5 0 0 0 - - -;
#X obj 719 588 snapshot~;
#X floatatom 687 642 5 0 0 0 - - -;
#X obj 789 587 snapshot~;
#X floatatom 757 641 5 0 0 0 - - -;
#X obj 859 586 snapshot~;
#X floatatom 827 640 5 0 0 0 - - -;
#X obj 930 586 snapshot~;
#X floatatom 898 640 5 0 0 0 - - -;
#X obj 999 586 snapshot~;
#X floatatom 967 640 5 0 0 0 - - -;
#X obj 1069 585 snapshot~;
#X floatatom 1037 639 5 0 0 0 - - -;
#X obj 1140 585 snapshot~;
#X floatatom 1108 639 5 0 0 0 - - -;
#X floatatom 354 384 5 0 2 0 - - -;
#X floatatom 506 386 5 0 5 0 - - -;
#X obj 350 305 hsl 128 15 0 1 0 0 empty empty empty -2 -8 0 10 -262144
-1 -1 0 1;
#X obj 508 305 hsl 128 15 0 1 0 0 empty empty empty -2 -8 0 10 -262144
-1 -1 12700 1;
#X obj 354 446 s level;
#X obj 507 444 s treshold;
#X obj 667 340 tgl 15 0 empty empty empty 17 7 0 10 -262144 -1 -1 0
1;
#X msg 676 397 exclusive \$1;
#X obj 718 488 belowThresh~, f 18;
#X connect 0 0 42 0;
#X connect 1 0 0 0;
#X connect 2 0 42 1;
#X connect 3 0 42 2;
#X connect 4 0 6 0;
#X connect 5 0 7 0;
#X connect 5 0 7 1;
#X connect 6 0 42 0;
#X connect 7 0 4 0;
#X connect 8 0 32 0;
#X connect 8 0 30 0;
#X connect 8 0 28 0;
#X connect 8 0 26 0;
#X connect 8 0 24 0;
#X connect 8 0 22 0;
#X connect 8 0 20 0;
#X connect 8 0 18 0;
#X connect 8 0 16 0;
#X connect 8 0 14 0;
#X connect 8 0 12 0;
#X connect 8 0 10 0;
#X connect 9 0 8 0;
#X connect 10 0 11 0;
#X connect 12 0 13 0;
#X connect 14 0 15 0;
#X connect 16 0 17 0;
#X connect 18 0 19 0;
#X connect 20 0 21 0;
#X connect 22 0 23 0;
#X connect 24 0 25 0;
#X connect 26 0 27 0;
#X connect 28 0 29 0;
#X connect 30 0 31 0;
#X connect 32 0 33 0;
#X connect 34 0 38 0;
#X connect 35 0 39 0;
#X connect 36 0 34 0;
#X connect 37 0 35 0;
#X connect 40 0 41 0;
#X connect 41 0 42 0;
#X connect 42 0 10 0;
#X connect 42 1 12 0;
#X connect 42 2 14 0;
#X connect 42 3 16 0;
#X connect 42 4 18 0;
#X connect 42 5 20 0;
#X connect 42 6 22 0;
#X connect 42 7 24 0;
#X connect 42 8 26 0;
#X connect 42 9 28 0;
#X connect 42 10 30 0;
#X connect 42 11 32 0;
