#N canvas 0 23 1680 1005 12;
#X obj 544 420 snapshot~;
#X obj 860 421 snapshot~;
#X obj 625 419 snapshot~;
#X obj 702 423 snapshot~;
#X obj 778 421 snapshot~;
#X obj 473 421 snapshot~;
#X obj 908 324 bng 15 250 50 0 empty empty empty 17 7 0 10 -262144
-1 -1;
#X floatatom 647 271 5 0 2 0 - - -;
#X floatatom 760 268 5 0 5 0 - - -;
#X floatatom 475 502 5 0 0 0 - - -;
#X floatatom 551 503 5 0 0 0 - - -;
#X floatatom 623 503 5 0 0 0 - - -;
#X floatatom 694 508 5 0 0 0 - - -;
#X floatatom 793 510 5 0 0 0 - - -;
#X floatatom 872 510 5 0 0 0 - - -;
#X obj 559 190 hsl 128 15 0 5 0 0 empty empty empty -2 -8 0 10 -262144
-1 -1 0 1;
#X obj 743 188 hsl 128 15 0 5 0 0 empty empty empty -2 -8 0 10 -262144
-1 -1 0 1;
#X obj 961 185 tgl 15 0 empty empty empty 17 7 0 10 -262144 -1 -1 0
1;
#X obj 956 245 metro 500;
#X floatatom 1224 193 5 0 2 0 - - -;
#X floatatom 1337 190 5 0 5 0 - - -;
#X obj 1136 112 hsl 128 15 0 5 0 0 empty empty empty -2 -8 0 10 -262144
-1 -1 0 1;
#X obj 1320 110 hsl 128 15 0 5 0 0 empty empty empty -2 -8 0 10 -262144
-1 -1 0 1;
#X obj 1168 335 mtof~;
#X obj 1174 393 osc~;
#X obj 1218 335 mtof~;
#X obj 1217 395 osc~;
#X obj 1268 335 mtof~;
#X obj 1267 395 osc~;
#X obj 1318 335 mtof~;
#X obj 1317 395 osc~;
#X obj 1366 335 mtof~;
#X obj 1365 395 osc~;
#X obj 1416 335 mtof~;
#X obj 1415 395 osc~;
#X obj 1285 468 dac~;
#X obj 1261 256 gameAccord~;
#X floatatom 734 735 5 0 2 0 - - -;
#X floatatom 799 744 5 0 5 0 - - -;
#X obj 700 659 hsl 128 15 0 1 0 0 empty empty empty -2 -8 0 10 -262144
-1 -1 0 1;
#X obj 853 658 hsl 128 15 0 1 0 0 empty empty empty -2 -8 0 10 -262144
-1 -1 0 1;
#X obj 655 918 snapshot~;
#X floatatom 667 1047 5 0 0 0 - - -;
#X obj 820 867 bng 15 250 50 0 empty empty empty 17 7 0 10 -262144
-1 -1;
#X obj 876 776 tgl 15 0 empty empty empty 17 7 0 10 -262144 -1 -1 0
1;
#X obj 684 334 gameA~;
#X msg 521 770 seqON \$1;
#X obj 517 720 tgl 15 0 empty empty empty 17 7 0 10 -262144 -1 -1 0
1;
#X obj 358 698 hsl 128 15 40 120 0 0 empty empty empty -2 -8 0 10 -262144
-1 -1 0 1;
#X floatatom 350 734 5 0 5 0 - - -;
#X obj 870 830 metro 50;
#X obj 148 350 aboveTreshCounter~;
#X floatatom 201 252 5 0 2 0 - - -;
#X floatatom 266 256 5 0 5 0 - - -;
#X obj 167 176 hsl 128 15 0 1 0 0 empty empty empty -2 -8 0 10 -262144
-1 -1 0 1;
#X obj 320 175 hsl 128 15 0 1 0 0 empty empty empty -2 -8 0 10 -262144
-1 -1 0 1;
#X obj 300 417 bng 15 250 50 0 empty empty empty 17 7 0 10 -262144
-1 -1;
#X obj 356 326 tgl 15 0 empty empty empty 17 7 0 10 -262144 -1 -1 0
1;
#X obj 349 370 metro 50;
#X obj 148 424 snapshot~;
#X floatatom 155 505 5 0 0 0 - - -;
#X obj 501 860 gameArpSynth~;
#X msg 426 772 seqTempo \$1;
#X msg 24 247 holdSec \$1;
#X obj 35 102 hsl 128 15 0.1 5 0 0 empty empty empty -2 -8 0 10 -262144
-1 -1 0 1;
#X floatatom 22 210 5 0 5 0 - - -;
#X obj 22 158 int;
#X msg 595 708 holdSec \$1;
#X obj 606 563 hsl 128 15 0.1 5 0 0 empty empty empty -2 -8 0 10 -262144
-1 -1 0 1;
#X floatatom 593 671 5 0 5 0 - - -;
#X obj 593 619 int;
#X obj 671 795 aboveThreshCounter~;
#X obj 1263 825 tgl 15 0 empty empty empty 17 7 0 10 -262144 -1 -1
1 1;
#X obj 1104 803 hsl 128 15 40 120 0 0 empty empty empty -2 -8 0 10
-262144 -1 -1 0 1;
#X floatatom 1096 839 5 0 5 0 - - -;
#X msg 1172 877 seqTempo \$1;
#X msg 1489 787 holdSec \$1;
#X obj 1498 645 hsl 128 15 1 5 0 0 empty empty empty -2 -8 0 10 -262144
-1 -1 2600 1;
#X floatatom 1487 750 5 0 5 0 - - -;
#X obj 1487 698 int;
#X obj 1473 822 r level;
#X obj 1539 822 r treshold;
#X floatatom 1231 723 5 0 0 0 - - -;
#X msg 1234 781 resetCounter \$1;
#X obj 1377 877 aboveThreshCounter~;
#X obj 1264 1084 snapshot~;
#X floatatom 1276 1213 5 0 0 0 - - -;
#X obj 1429 1033 bng 15 250 50 0 empty empty empty 17 7 0 10 -262144
-1 -1;
#X obj 1485 942 tgl 15 0 empty empty empty 17 7 0 10 -262144 -1 -1
1 1;
#X obj 1479 996 metro 50;
#X floatatom 859 1027 5 0 2 0 - - -;
#X floatatom 1011 1029 5 0 5 0 - - -;
#X obj 837 948 hsl 128 15 0 1 0 0 empty empty empty -2 -8 0 10 -262144
-1 -1 0 1;
#X obj 1013 948 hsl 128 15 0 1 0 0 empty empty empty -2 -8 0 10 -262144
-1 -1 0 1;
#X obj 859 1089 s level;
#X obj 1012 1087 s treshold;
#X obj 1249 943 gameArpSynth~;
#X floatatom 1351 993 5 0 0 0 - - -;
#X floatatom 1283 843 5 0 0 0 - - -;
#X msg 1267 875 seqOn \$1;
#X obj 1398 951 snapshot~;
#X obj 1228 667 tgl 15 0 empty empty empty 17 7 0 10 -262144 -1 -1
0 1;
#X obj 1272 656 bng 15 250 50 0 empty empty empty 17 7 0 10 -262144
-1 -1;
#X obj 1184 990 dac~;
#X floatatom 1367 751 5 0 0 0 - - -;
#X obj 1367 560 vsl 15 128 0 12 0 0 empty empty empty 0 -9 0 10 -262144
-1 -1 0 1;
#X msg 1368 787 activeSteps \$1;
#X obj 1367 711 int;
#X connect 0 0 10 0;
#X connect 1 0 14 0;
#X connect 2 0 11 0;
#X connect 3 0 12 0;
#X connect 4 0 13 0;
#X connect 5 0 9 0;
#X connect 6 0 1 0;
#X connect 6 0 4 0;
#X connect 6 0 3 0;
#X connect 6 0 2 0;
#X connect 6 0 0 0;
#X connect 6 0 5 0;
#X connect 7 0 45 1;
#X connect 8 0 45 2;
#X connect 15 0 7 0;
#X connect 16 0 8 0;
#X connect 17 0 18 0;
#X connect 18 0 6 0;
#X connect 19 0 36 1;
#X connect 20 0 36 2;
#X connect 21 0 19 0;
#X connect 22 0 20 0;
#X connect 23 0 24 0;
#X connect 24 0 35 0;
#X connect 25 0 26 0;
#X connect 26 0 35 1;
#X connect 27 0 28 0;
#X connect 28 0 35 0;
#X connect 29 0 30 0;
#X connect 30 0 35 1;
#X connect 31 0 32 0;
#X connect 32 0 35 0;
#X connect 33 0 34 0;
#X connect 34 0 35 1;
#X connect 36 0 23 0;
#X connect 36 1 25 0;
#X connect 36 2 27 0;
#X connect 36 3 29 0;
#X connect 36 4 31 0;
#X connect 36 5 33 0;
#X connect 37 0 71 1;
#X connect 38 0 71 2;
#X connect 39 0 37 0;
#X connect 40 0 38 0;
#X connect 41 0 42 0;
#X connect 43 0 41 0;
#X connect 44 0 50 0;
#X connect 45 0 5 0;
#X connect 45 1 0 0;
#X connect 45 2 2 0;
#X connect 45 3 3 0;
#X connect 45 4 4 0;
#X connect 45 5 1 0;
#X connect 46 0 61 0;
#X connect 47 0 46 0;
#X connect 48 0 49 0;
#X connect 49 0 62 0;
#X connect 50 0 43 0;
#X connect 51 0 59 0;
#X connect 52 0 51 1;
#X connect 53 0 51 2;
#X connect 54 0 52 0;
#X connect 55 0 53 0;
#X connect 56 0 59 0;
#X connect 57 0 58 0;
#X connect 58 0 56 0;
#X connect 59 0 60 0;
#X connect 62 0 61 0;
#X connect 63 0 51 0;
#X connect 64 0 66 1;
#X connect 64 0 66 0;
#X connect 65 0 63 0;
#X connect 66 0 65 0;
#X connect 67 0 71 0;
#X connect 68 0 70 1;
#X connect 68 0 70 0;
#X connect 69 0 67 0;
#X connect 70 0 69 0;
#X connect 71 0 41 0;
#X connect 71 0 61 1;
#X connect 72 0 98 0;
#X connect 73 0 74 0;
#X connect 74 0 75 0;
#X connect 75 0 96 0;
#X connect 76 0 84 0;
#X connect 77 0 79 1;
#X connect 77 0 79 0;
#X connect 78 0 76 0;
#X connect 79 0 78 0;
#X connect 80 0 84 1;
#X connect 81 0 84 2;
#X connect 82 0 83 0;
#X connect 83 0 84 0;
#X connect 84 0 100 0;
#X connect 84 0 96 1;
#X connect 85 0 86 0;
#X connect 87 0 85 0;
#X connect 87 0 100 0;
#X connect 88 0 89 0;
#X connect 89 0 87 0;
#X connect 90 0 94 0;
#X connect 91 0 95 0;
#X connect 92 0 90 0;
#X connect 93 0 91 0;
#X connect 96 0 85 0;
#X connect 96 0 103 1;
#X connect 96 0 103 0;
#X connect 98 0 99 0;
#X connect 99 0 96 0;
#X connect 100 0 97 0;
#X connect 101 0 82 0;
#X connect 102 0 101 0;
#X connect 104 0 106 0;
#X connect 105 0 107 0;
#X connect 105 0 107 1;
#X connect 106 0 84 0;
#X connect 107 0 104 0;
