#N canvas 0 23 1680 1005 12;
#X floatatom 311 223 5 0 4 0 - - -;
#X floatatom 395 221 5 0 0 0 - - -;
#X msg 396 254 baseKeyMIDI \$1;
#X msg 311 256 oscType \$1;
#X floatatom 227 224 5 0 5 0 - - -;
#X msg 228 257 scale \$1;
#X msg 121 257 noiseLevel \$1;
#X floatatom 121 222 5 0 0 0 - - -;
#X obj 120 64 vsl 15 128 0 127 0 0 empty empty empty 0 -9 0 10 -262144
-1 -1 0 1;
#X obj 393 66 vsl 15 128 40 100 0 0 empty empty empty 0 -9 0 10 -262144
-1 -1 0 1;
#X floatatom 13 223 5 0 0 0 - - -;
#X obj 12 58 vsl 15 128 0 127 0 0 empty empty empty 0 -9 0 10 -262144
-1 -1 0 1;
#X msg 13 258 synthLevel \$1;
#X msg 433 136 invert \$1;
#X obj 433 87 tgl 15 0 empty empty empty 17 7 0 10 -262144 -1 -1 0
1;
#X floatatom 1236 244 5 0 4 0 - - -;
#X floatatom 1428 243 5 0 0 0 - - -;
#X obj 1407 197 hsl 128 15 40 80 0 0 empty empty empty -2 -8 0 10 -262144
-1 -1 0 1;
#X msg 1429 276 baseKeyMIDI \$1;
#X msg 1237 277 oscType \$1;
#X floatatom 1152 245 5 0 6 0 - - -;
#X msg 1153 278 scale \$1;
#X msg 1852 252 invert \$1;
#X obj 1843 195 tgl 15 0 empty empty empty 17 7 0 10 -262144 -1 -1
0 1;
#X floatatom 896 241 5 0 0 0 - - -;
#X obj 895 83 vsl 15 128 0 127 0 0 empty empty empty 0 -9 0 10 -262144
-1 -1 0 1;
#X floatatom 788 242 5 0 0 0 - - -;
#X obj 787 89 vsl 15 128 0 127 0 0 empty empty empty 0 -9 0 10 -262144
-1 -1 0 1;
#X msg 788 277 synthLevel \$1;
#X obj 2363 294 tgl 15 0 empty empty empty 17 7 0 10 -262144 -1 -1
1 1;
#X obj 2192 272 hsl 128 15 40 120 0 0 empty empty empty -2 -8 0 10
-262144 -1 -1 0 1;
#X floatatom 2196 308 5 0 5 0 - - -;
#X obj 2347 434 gameArpSynth~;
#X msg 2272 346 seqTempo \$1;
#X msg 2516 257 holdSec \$1;
#X obj 2525 115 hsl 128 15 1 5 0 0 empty empty empty -2 -8 0 10 -262144
-1 -1 800 1;
#X floatatom 2514 220 5 0 5 0 - - -;
#X obj 2514 168 int;
#X floatatom 708 -86 5 0 2 0 - - -;
#X floatatom 860 -84 5 0 5 0 - - -;
#X obj 686 -165 hsl 128 15 0 1 0 0 empty empty empty -2 -8 0 10 -262144
-1 -1 12400 1;
#X obj 862 -165 hsl 128 15 0 1 0 0 empty empty empty -2 -8 0 10 -262144
-1 -1 12700 1;
#X obj 708 -24 s level;
#X obj 861 -26 s treshold;
#X obj 1993 311 r level;
#X obj 2059 311 r treshold;
#X obj 605 209 r level;
#X obj 671 209 r treshold;
#X obj 2573 291 r level;
#X obj 2639 291 r treshold;
#X obj 1351 839 dac~;
#X obj 267 500 tgl 15 0 empty empty empty 17 7 0 10 -262144 -1 -1 0
1;
#X obj 133 505 tgl 15 0 empty empty empty 17 7 0 10 -262144 -1 -1 0
1;
#X floatatom 109 560 5 0 0 0 - - -;
#X obj 108 393 vsl 15 128 0 127 0 0 empty empty empty 0 -9 0 10 -262144
-1 -1 0 1;
#X msg 109 595 gameToneLevel \$1;
#X floatatom 246 558 5 0 0 0 - - -;
#X obj 246 385 vsl 15 128 0 127 0 0 empty empty empty 0 -9 0 10 -262144
-1 -1 0 1;
#X msg 247 593 gameAccordLevel \$1;
#X obj 410 500 tgl 15 0 empty empty empty 17 7 0 10 -262144 -1 -1 1
1;
#X floatatom 389 558 5 0 0 0 - - -;
#X obj 389 385 vsl 15 128 0 127 0 0 empty empty empty 0 -9 0 10 -262144
-1 -1 0 1;
#X msg 390 593 gameArpLevel \$1;
#X msg 132 530 gameToneON \$1;
#X msg 267 526 gameAccordON \$1;
#X msg 410 526 gameArpON \$1;
#X obj 2517 368 aboveThreshCounter~;
#X floatatom 1148 -34 5 0 0 0 - - -;
#X obj 1148 -126 vsl 15 64 0.01 1 1 0 empty empty empty 0 -9 0 10 -262144
-1 -1 0 1;
#X obj 590 291 belowThresh~, f 21;
#X obj 573 366 gameToneSynth~, f 27;
#X floatatom 526 99 5 0 0 0 - - -;
#X obj 526 -92 vsl 15 128 0 12 0 0 empty empty empty 0 -9 0 10 -262144
-1 -1 0 1;
#X msg 527 135 activeSteps \$1;
#X floatatom 1960 217 5 0 0 0 - - -;
#X obj 1960 0 vsl 15 128 0 12 0 0 empty empty empty 0 -9 0 10 -262144
-1 -1 0 1;
#X msg 1957 261 activeSteps \$1;
#X obj 1319 699 gameMixer~;
#X obj 1974 387 belowThresh~, f 18;
#X obj 1955 462 gameAccordSynth~, f 20;
#X floatatom 1253 -35 5 0 0 0 - - -;
#X obj 1253 -127 vsl 15 64 0.01 1 1 0 empty empty empty 0 -9 0 10 -262144
-1 -1 0 1;
#X floatatom 1360 -36 5 0 0 0 - - -;
#X obj 1360 -128 vsl 15 64 0.01 1 1 0 empty empty empty 0 -9 0 10 -262144
-1 -1 0 1;
#X floatatom 1465 -37 5 0 0 0 - - -;
#X obj 1465 -129 vsl 15 64 0.01 1 1 0 empty empty empty 0 -9 0 10 -262144
-1 -1 0 1;
#X floatatom 1582 -35 5 0 0 0 - - -;
#X obj 1582 -127 vsl 15 64 0.01 1 1 0 empty empty empty 0 -9 0 10 -262144
-1 -1 0 1;
#X floatatom 1687 -36 5 0 0 0 - - -;
#X obj 1687 -128 vsl 15 64 0.01 1 1 0 empty empty empty 0 -9 0 10 -262144
-1 -1 0 1;
#X msg 1146 4 accordPan0 \$1;
#X msg 1251 2 accordPan1 \$1;
#X msg 1359 2 accordPan2 \$1;
#X msg 1463 1 accordPan3 \$1;
#X msg 1580 3 accordPan4 \$1;
#X msg 1685 2 accordPan5 \$1;
#X obj 1958 175 int;
#X obj 526 59 int;
#X text 1239 -202 Nedaval jsem tu vsechny \, muze tu byt panning pro
vsech 12 tonu, f 63;
#X msg 1023 276 noiseLevel \$1;
#X floatatom 1023 241 5 0 0 0 - - -;
#X obj 1022 83 vsl 15 128 0 127 0 0 empty empty empty 0 -9 0 10 -262144
-1 -1 0 1;
#X msg 895 276 subSynthLevel \$1;
#X floatatom 1318 244 5 0 4 0 - - -;
#X msg 1318 277 subOscType \$1;
#X floatatom 1250 464 5 0 0 0 - - -;
#X obj 1252 378 vsl 15 50 0 3 0 0 empty empty empty 0 -9 0 10 -262144
-1 -1 0 1;
#X floatatom 1356 468 5 0 0 0 - - -;
#X obj 1358 377 vsl 15 50 0 3 0 0 empty empty empty 0 -9 0 10 -262144
-1 -1 0 1;
#X msg 1250 499 envAttack \$1;
#X msg 1356 503 envRelease \$1;
#X obj 937 381 threshMeter~, f 25;
#X obj 1071 431 hsl 128 15 0 1 0 0 empty empty empty -2 -8 0 10 -262144
-1 -1 0 1;
#X obj 979 409 snapshot~;
#X obj 1153 397 metro 200;
#X obj 1166 364 tgl 15 0 empty empty empty 17 7 0 10 -262144 -1 -1
0 1;
#X obj 1864 135 tgl 15 0 empty empty empty 17 7 0 10 -262144 -1 -1
0 1;
#X msg 1864 193 exclusive \$1;
#X obj 433 -42 tgl 15 0 empty empty empty 17 7 0 10 -262144 -1 -1 0
1;
#X msg 433 16 exclusive \$1;
#X floatatom 2241 151 5 0 0 0 - - -;
#X obj 2241 -40 vsl 15 128 0 12 0 0 empty empty empty 0 -9 0 10 -262144
-1 -1 8900 1;
#X msg 2242 187 activeSteps \$1;
#X obj 2241 111 int;
#X floatatom 2388 141 5 0 0 0 - - -;
#X msg 2383 214 resetCounter \$1;
#X obj 2385 85 tgl 15 0 empty empty empty 17 7 0 10 -262144 -1 -1 0
1;
#X obj 2429 74 bng 15 250 50 0 empty empty empty 17 7 0 10 -262144
-1 -1;
#X msg 2367 344 seqOn \$1;
#X connect 0 0 3 0;
#X connect 1 0 2 0;
#X connect 2 0 70 0;
#X connect 3 0 70 0;
#X connect 4 0 5 0;
#X connect 5 0 70 0;
#X connect 6 0 70 0;
#X connect 7 0 6 0;
#X connect 8 0 7 0;
#X connect 9 0 1 0;
#X connect 10 0 12 0;
#X connect 11 0 10 0;
#X connect 12 0 70 0;
#X connect 13 0 69 0;
#X connect 14 0 13 0;
#X connect 15 0 19 0;
#X connect 16 0 18 0;
#X connect 17 0 16 0;
#X connect 18 0 79 0;
#X connect 19 0 79 0;
#X connect 20 0 21 0;
#X connect 21 0 79 0;
#X connect 22 0 78 0;
#X connect 22 0 79 0;
#X connect 23 0 22 0;
#X connect 24 0 102 0;
#X connect 25 0 24 0;
#X connect 26 0 28 0;
#X connect 27 0 26 0;
#X connect 28 0 79 0;
#X connect 29 0 128 0;
#X connect 30 0 31 0;
#X connect 31 0 33 0;
#X connect 32 0 77 4;
#X connect 33 0 32 0;
#X connect 34 0 66 0;
#X connect 35 0 37 1;
#X connect 35 0 37 0;
#X connect 36 0 34 0;
#X connect 37 0 36 0;
#X connect 38 0 42 0;
#X connect 39 0 43 0;
#X connect 40 0 38 0;
#X connect 41 0 39 0;
#X connect 44 0 78 1;
#X connect 45 0 78 2;
#X connect 46 0 69 1;
#X connect 47 0 69 2;
#X connect 48 0 66 1;
#X connect 49 0 66 2;
#X connect 51 0 64 0;
#X connect 52 0 63 0;
#X connect 53 0 55 0;
#X connect 54 0 53 0;
#X connect 55 0 77 0;
#X connect 56 0 58 0;
#X connect 57 0 56 0;
#X connect 58 0 77 0;
#X connect 59 0 65 0;
#X connect 60 0 62 0;
#X connect 61 0 60 0;
#X connect 62 0 77 0;
#X connect 63 0 77 0;
#X connect 64 0 77 0;
#X connect 65 0 77 0;
#X connect 66 0 32 1;
#X connect 67 0 90 0;
#X connect 68 0 67 0;
#X connect 69 0 70 1;
#X connect 69 0 111 1;
#X connect 69 1 70 2;
#X connect 69 1 111 2;
#X connect 69 2 70 3;
#X connect 69 2 111 3;
#X connect 69 3 70 4;
#X connect 69 3 111 4;
#X connect 69 4 70 5;
#X connect 69 4 111 5;
#X connect 69 5 70 6;
#X connect 69 5 111 6;
#X connect 69 6 70 7;
#X connect 69 6 111 7;
#X connect 69 7 70 8;
#X connect 69 7 111 8;
#X connect 69 8 70 9;
#X connect 69 8 111 9;
#X connect 69 9 70 10;
#X connect 69 9 111 10;
#X connect 69 10 70 11;
#X connect 69 10 111 11;
#X connect 69 11 70 12;
#X connect 69 11 111 12;
#X connect 70 0 77 1;
#X connect 71 0 73 0;
#X connect 72 0 97 0;
#X connect 72 0 97 1;
#X connect 73 0 69 0;
#X connect 73 0 111 0;
#X connect 74 0 76 0;
#X connect 75 0 96 0;
#X connect 75 0 96 1;
#X connect 76 0 78 0;
#X connect 76 0 79 0;
#X connect 77 0 50 0;
#X connect 77 1 50 1;
#X connect 78 0 79 1;
#X connect 78 1 79 2;
#X connect 78 2 79 3;
#X connect 78 3 79 4;
#X connect 78 4 79 5;
#X connect 78 5 79 6;
#X connect 78 6 79 7;
#X connect 78 7 79 8;
#X connect 78 8 79 9;
#X connect 78 9 79 10;
#X connect 78 10 79 11;
#X connect 78 11 79 12;
#X connect 79 0 77 2;
#X connect 79 1 77 3;
#X connect 80 0 91 0;
#X connect 81 0 80 0;
#X connect 82 0 92 0;
#X connect 83 0 82 0;
#X connect 84 0 93 0;
#X connect 85 0 84 0;
#X connect 86 0 94 0;
#X connect 87 0 86 0;
#X connect 88 0 95 0;
#X connect 89 0 88 0;
#X connect 90 0 79 0;
#X connect 91 0 79 0;
#X connect 92 0 79 0;
#X connect 93 0 79 0;
#X connect 94 0 79 0;
#X connect 95 0 79 0;
#X connect 96 0 74 0;
#X connect 97 0 71 0;
#X connect 99 0 79 0;
#X connect 100 0 99 0;
#X connect 101 0 100 0;
#X connect 102 0 79 0;
#X connect 103 0 104 0;
#X connect 104 0 79 0;
#X connect 105 0 109 0;
#X connect 106 0 105 0;
#X connect 107 0 110 0;
#X connect 108 0 107 0;
#X connect 109 0 79 1;
#X connect 109 0 70 0;
#X connect 110 0 79 1;
#X connect 110 0 70 0;
#X connect 111 0 113 0;
#X connect 113 0 112 0;
#X connect 114 0 113 0;
#X connect 115 0 114 0;
#X connect 116 0 117 0;
#X connect 117 0 78 0;
#X connect 118 0 119 0;
#X connect 119 0 69 0;
#X connect 120 0 122 0;
#X connect 121 0 123 0;
#X connect 121 0 123 1;
#X connect 122 0 66 0;
#X connect 123 0 120 0;
#X connect 124 0 125 0;
#X connect 125 0 66 0;
#X connect 126 0 124 0;
#X connect 127 0 126 0;
#X connect 128 0 32 0;
