#N canvas 0 23 1680 1005 12;
#X obj 544 420 snapshot~;
#X obj 860 421 snapshot~;
#X obj 625 419 snapshot~;
#X obj 702 423 snapshot~;
#X obj 778 421 snapshot~;
#X obj 473 421 snapshot~;
#X obj 908 324 bng 15 250 50 0 empty empty empty 17 7 0 10 -262144
-1 -1;
#X floatatom 647 271 5 0 2 0 - - -;
#X floatatom 760 268 5 0 5 0 - - -;
#X floatatom 475 502 5 0 0 0 - - -;
#X floatatom 551 503 5 0 0 0 - - -;
#X floatatom 623 503 5 0 0 0 - - -;
#X floatatom 694 508 5 0 0 0 - - -;
#X floatatom 793 510 5 0 0 0 - - -;
#X floatatom 872 510 5 0 0 0 - - -;
#X obj 559 190 hsl 128 15 0 5 0 0 empty empty empty -2 -8 0 10 -262144
-1 -1 0 1;
#X obj 743 188 hsl 128 15 0 5 0 0 empty empty empty -2 -8 0 10 -262144
-1 -1 0 1;
#X obj 961 185 tgl 15 0 empty empty empty 17 7 0 10 -262144 -1 -1 0
1;
#X obj 956 245 metro 500;
#X floatatom 1216 280 5 0 2 0 - - -;
#X floatatom 1329 277 5 0 5 0 - - -;
#X obj 1128 199 hsl 128 15 0 5 0 0 empty empty empty -2 -8 0 10 -262144
-1 -1 0 1;
#X obj 1312 197 hsl 128 15 0 5 0 0 empty empty empty -2 -8 0 10 -262144
-1 -1 0 1;
#X obj 1160 422 mtof~;
#X obj 1166 480 osc~;
#X obj 1210 422 mtof~;
#X obj 1209 482 osc~;
#X obj 1260 422 mtof~;
#X obj 1259 482 osc~;
#X obj 1310 422 mtof~;
#X obj 1309 482 osc~;
#X obj 1358 422 mtof~;
#X obj 1357 482 osc~;
#X obj 1408 422 mtof~;
#X obj 1407 482 osc~;
#X obj 1277 555 dac~;
#X obj 1253 343 gameAccord~;
#X floatatom 734 735 5 0 2 0 - - -;
#X floatatom 799 744 5 0 5 0 - - -;
#X obj 700 659 hsl 128 15 0 1 0 0 empty empty empty -2 -8 0 10 -262144
-1 -1 0 1;
#X obj 853 658 hsl 128 15 0 1 0 0 empty empty empty -2 -8 0 10 -262144
-1 -1 0 1;
#X obj 655 918 snapshot~;
#X floatatom 667 1047 5 0 0 0 - - -;
#X obj 820 867 bng 15 250 50 0 empty empty empty 17 7 0 10 -262144
-1 -1;
#X obj 876 776 tgl 15 0 empty empty empty 17 7 0 10 -262144 -1 -1 1
1;
#X obj 684 334 gameA~;
#X msg 521 770 seqON \$1;
#X obj 517 720 tgl 15 0 empty empty empty 17 7 0 10 -262144 -1 -1 0
1;
#X obj 358 698 hsl 128 15 40 120 0 0 empty empty empty -2 -8 0 10 -262144
-1 -1 9100 1;
#X floatatom 350 734 5 0 5 0 - - -;
#X obj 870 830 metro 50;
#X obj 148 350 aboveTreshCounter~;
#X floatatom 201 252 5 0 2 0 - - -;
#X floatatom 266 256 5 0 5 0 - - -;
#X obj 167 176 hsl 128 15 0 1 0 0 empty empty empty -2 -8 0 10 -262144
-1 -1 0 1;
#X obj 320 175 hsl 128 15 0 1 0 0 empty empty empty -2 -8 0 10 -262144
-1 -1 0 1;
#X obj 300 417 bng 15 250 50 0 empty empty empty 17 7 0 10 -262144
-1 -1;
#X obj 356 326 tgl 15 0 empty empty empty 17 7 0 10 -262144 -1 -1 0
1;
#X obj 349 370 metro 50;
#X obj 148 424 snapshot~;
#X floatatom 155 505 5 0 0 0 - - -;
#X obj 671 795 aboveTreshCounter~;
#X obj 501 860 gameArpSynth~;
#X obj 485 948 dac~;
#X msg 426 772 seqTempo \$1;
#X msg 24 247 holdSec \$1;
#X obj 35 102 hsl 128 15 0.1 5 0 0 empty empty empty -2 -8 0 10 -262144
-1 -1 0 1;
#X floatatom 22 210 5 0 5 0 - - -;
#X obj 22 158 int;
#X msg 595 708 holdSec \$1;
#X obj 606 563 hsl 128 15 0.1 5 0 0 empty empty empty -2 -8 0 10 -262144
-1 -1 0 1;
#X floatatom 593 671 5 0 5 0 - - -;
#X obj 593 619 int;
#X connect 0 0 10 0;
#X connect 1 0 14 0;
#X connect 2 0 11 0;
#X connect 3 0 12 0;
#X connect 4 0 13 0;
#X connect 5 0 9 0;
#X connect 6 0 1 0;
#X connect 6 0 4 0;
#X connect 6 0 3 0;
#X connect 6 0 2 0;
#X connect 6 0 0 0;
#X connect 6 0 5 0;
#X connect 7 0 45 1;
#X connect 8 0 45 2;
#X connect 15 0 7 0;
#X connect 16 0 8 0;
#X connect 17 0 18 0;
#X connect 18 0 6 0;
#X connect 19 0 36 1;
#X connect 20 0 36 2;
#X connect 21 0 19 0;
#X connect 22 0 20 0;
#X connect 23 0 24 0;
#X connect 24 0 35 0;
#X connect 25 0 26 0;
#X connect 26 0 35 1;
#X connect 27 0 28 0;
#X connect 28 0 35 0;
#X connect 29 0 30 0;
#X connect 30 0 35 1;
#X connect 31 0 32 0;
#X connect 32 0 35 0;
#X connect 33 0 34 0;
#X connect 34 0 35 1;
#X connect 36 0 23 0;
#X connect 36 1 25 0;
#X connect 36 2 27 0;
#X connect 36 3 29 0;
#X connect 36 4 31 0;
#X connect 36 5 33 0;
#X connect 37 0 61 1;
#X connect 38 0 61 2;
#X connect 39 0 37 0;
#X connect 40 0 38 0;
#X connect 41 0 42 0;
#X connect 43 0 41 0;
#X connect 44 0 50 0;
#X connect 45 0 5 0;
#X connect 45 1 0 0;
#X connect 45 2 2 0;
#X connect 45 3 3 0;
#X connect 45 4 4 0;
#X connect 45 5 1 0;
#X connect 46 0 62 0;
#X connect 47 0 46 0;
#X connect 48 0 49 0;
#X connect 49 0 64 0;
#X connect 50 0 43 0;
#X connect 51 0 59 0;
#X connect 52 0 51 1;
#X connect 53 0 51 2;
#X connect 54 0 52 0;
#X connect 55 0 53 0;
#X connect 56 0 59 0;
#X connect 57 0 58 0;
#X connect 58 0 56 0;
#X connect 59 0 60 0;
#X connect 61 0 41 0;
#X connect 61 0 62 1;
#X connect 62 0 63 1;
#X connect 62 0 63 0;
#X connect 64 0 62 0;
#X connect 65 0 51 0;
#X connect 66 0 68 1;
#X connect 66 0 68 0;
#X connect 67 0 65 0;
#X connect 68 0 67 0;
#X connect 69 0 61 0;
#X connect 70 0 72 1;
#X connect 70 0 72 0;
#X connect 71 0 69 0;
#X connect 72 0 71 0;
