#N canvas 0 23 1680 1005 12;
#X floatatom 395 221 5 0 0 0 - - -;
#X msg 396 254 baseKeyMIDI \$1;
#X obj 393 66 vsl 15 128 40 100 0 0 empty empty empty 0 -9 0 10 -262144
-1 -1 0 1;
#X msg 433 136 invert \$1;
#X obj 433 87 tgl 15 0 empty empty empty 17 7 0 10 -262144 -1 -1 0
1;
#X floatatom 1438 258 5 0 0 0 - - -;
#X obj 1417 212 hsl 128 15 40 80 0 0 empty empty empty -2 -8 0 10 -262144
-1 -1 0 1;
#X msg 1439 291 baseKeyMIDI \$1;
#X msg 1494 101 invert \$1;
#X obj 1494 42 tgl 15 0 empty empty empty 17 7 0 10 -262144 -1 -1 0
1;
#X obj 821 115 hsl 128 15 40 200 0 0 empty empty empty -2 -8 0 10 -262144
-1 -1 0 1;
#X floatatom 825 151 5 0 5 0 - - -;
#X msg 825 189 seqTempo \$1;
#X floatatom 708 -86 5 0 2 0 - - -;
#X floatatom 860 -84 5 0 5 0 - - -;
#X obj 696 -162 hsl 128 15 0 1 0 0 empty empty empty -2 -8 0 10 -262144
-1 -1 3000 1;
#X obj 862 -165 hsl 128 15 0 1 0 0 empty empty empty -2 -8 0 10 -262144
-1 -1 12700 1;
#X obj 708 -24 s level;
#X obj 861 -26 s treshold;
#X obj 1681 238 r level;
#X obj 1747 238 r treshold;
#X obj 605 209 r level;
#X obj 671 209 r treshold;
#X obj 600 269 belowThresh~, f 21;
#X floatatom 564 118 5 0 0 0 - - -;
#X obj 564 -73 vsl 15 128 0 12 0 0 empty empty empty 0 -9 0 10 -262144
-1 -1 0 1;
#X msg 565 154 activeSteps \$1;
#X floatatom 1684 144 5 0 0 0 - - -;
#X obj 1684 -73 vsl 15 128 0 12 0 0 empty empty empty 0 -9 0 10 -262144
-1 -1 0 1;
#X msg 1681 188 activeSteps \$1;
#X obj 1682 102 int;
#X obj 564 78 int;
#X text 1239 -202 Nedaval jsem tu vsechny \, muze tu byt panning pro
vsech 12 tonu, f 63;
#X obj 466 42 tgl 15 0 empty empty empty 17 7 0 10 -262144 -1 -1 0
1;
#X msg 466 100 exclusive \$1;
#X floatatom 591 -167 5 0 6 0 - - -;
#X msg 592 -85 scale \$1;
#X obj 594 -26 s scale;
#X obj 238 256 r scale;
#X obj 1374 291 r scale;
#X obj 844 269 r scale;
#X floatatom 1164 225 5 0 0 0 - - -;
#X obj 1662 314 belowThresh~, f 18;
#X obj 1168 164 tgl 15 0 empty empty empty 17 7 0 10 -262144 -1 -1
0 1;
#X floatatom 953 183 5 0 0 0 - - -;
#X obj 953 -34 vsl 15 128 0 12 0 0 empty empty empty 0 -9 0 10 -262144
-1 -1 0 1;
#X msg 924 224 activeSteps \$1;
#X obj 951 141 int;
#X floatatom 1028 107 5 0 0 0 - - -;
#X obj 1032 46 tgl 15 0 empty empty empty 17 7 0 10 -262144 -1 -1 0
1;
#X msg 1023 174 seqStepsContinue \$1;
#X obj 585 392 gameToneMIDI~, f 27;
#X obj 820 516 snapshot~;
#X floatatom 839 572 5 0 0 0 - - -;
#X obj 866 495 bng 15 250 50 0 empty empty empty 17 7 0 10 -262144
-1 -1;
#X obj 869 426 tgl 15 0 empty empty empty 17 7 0 10 -262144 -1 -1 0
1;
#X obj 747 535 mtof;
#X obj 925 908 osc~;
#X obj 904 952 dac~;
#X obj 706 756 *;
#X obj 748 709 tgl 15 0 empty empty empty 17 7 0 10 -262144 -1 -1 0
1;
#X obj 866 466 metro 100;
#X obj 969 326 gameArpMIDI~;
#X obj 1086 450 snapshot~;
#X floatatom 1105 506 5 0 0 0 - - -;
#X obj 1132 429 bng 15 250 50 0 empty empty empty 17 7 0 10 -262144
-1 -1;
#X obj 1135 360 tgl 15 0 empty empty empty 17 7 0 10 -262144 -1 -1
0 1;
#X obj 1013 469 mtof;
#X obj 1132 400 metro 100;
#X obj 993 800 *;
#X obj 1035 753 tgl 15 0 empty empty empty 17 7 0 10 -262144 -1 -1
0 1;
#X obj 1643 419 gameAccordMIDI~, f 20;
#X obj 1205 622 snapshot~;
#X obj 1521 623 snapshot~;
#X obj 1286 621 snapshot~;
#X obj 1363 625 snapshot~;
#X obj 1439 623 snapshot~;
#X obj 1134 623 snapshot~;
#X obj 1889 472 bng 15 250 50 0 empty empty empty 17 7 0 10 -262144
-1 -1;
#X floatatom 1128 710 5 0 0 0 - - -;
#X floatatom 1212 705 5 0 0 0 - - -;
#X floatatom 1284 705 5 0 0 0 - - -;
#X floatatom 1355 710 5 0 0 0 - - -;
#X floatatom 1454 712 5 0 0 0 - - -;
#X floatatom 1533 712 5 0 0 0 - - -;
#X obj 1942 333 tgl 15 0 empty empty empty 17 7 0 10 -262144 -1 -1
1 1;
#X obj 1937 393 metro 500;
#X obj 1682 626 snapshot~;
#X obj 1998 627 snapshot~;
#X obj 1763 625 snapshot~;
#X obj 1840 629 snapshot~;
#X obj 1916 627 snapshot~;
#X obj 1605 622 snapshot~;
#X floatatom 1613 708 5 0 0 0 - - -;
#X floatatom 1689 709 5 0 0 0 - - -;
#X floatatom 1761 709 5 0 0 0 - - -;
#X floatatom 1832 714 5 0 0 0 - - -;
#X floatatom 1931 716 5 0 0 0 - - -;
#X floatatom 2010 716 5 0 0 0 - - -;
#X connect 0 0 1 0;
#X connect 1 0 51 0;
#X connect 2 0 0 0;
#X connect 4 0 3 0;
#X connect 5 0 7 0;
#X connect 6 0 5 0;
#X connect 7 0 71 0;
#X connect 8 0 42 0;
#X connect 9 0 8 0;
#X connect 10 0 11 0;
#X connect 11 0 12 0;
#X connect 12 0 62 0;
#X connect 13 0 17 0;
#X connect 14 0 18 0;
#X connect 15 0 13 0;
#X connect 16 0 14 0;
#X connect 19 0 42 1;
#X connect 20 0 42 2;
#X connect 21 0 23 1;
#X connect 22 0 23 2;
#X connect 23 0 51 1;
#X connect 23 1 51 2;
#X connect 23 2 51 3;
#X connect 23 3 51 4;
#X connect 23 4 51 5;
#X connect 23 5 51 6;
#X connect 23 6 51 7;
#X connect 23 7 51 8;
#X connect 23 8 51 9;
#X connect 23 9 51 10;
#X connect 23 10 51 11;
#X connect 23 11 51 12;
#X connect 24 0 26 0;
#X connect 25 0 31 0;
#X connect 25 0 31 1;
#X connect 26 0 23 0;
#X connect 26 0 51 0;
#X connect 27 0 29 0;
#X connect 28 0 30 0;
#X connect 28 0 30 1;
#X connect 29 0 42 0;
#X connect 29 0 71 0;
#X connect 30 0 27 0;
#X connect 31 0 24 0;
#X connect 33 0 34 0;
#X connect 35 0 36 0;
#X connect 36 0 37 0;
#X connect 38 0 51 0;
#X connect 39 0 71 0;
#X connect 40 0 62 0;
#X connect 41 0 62 1;
#X connect 42 0 71 1;
#X connect 42 1 71 2;
#X connect 42 2 71 3;
#X connect 42 3 71 4;
#X connect 42 4 71 5;
#X connect 42 5 71 6;
#X connect 42 6 71 7;
#X connect 42 7 71 8;
#X connect 42 8 71 9;
#X connect 42 9 71 10;
#X connect 42 10 71 11;
#X connect 42 11 71 12;
#X connect 43 0 41 0;
#X connect 44 0 46 0;
#X connect 45 0 47 0;
#X connect 45 0 47 1;
#X connect 46 0 62 0;
#X connect 47 0 44 0;
#X connect 48 0 50 0;
#X connect 49 0 48 0;
#X connect 50 0 62 0;
#X connect 51 0 52 0;
#X connect 52 0 53 0;
#X connect 52 0 56 0;
#X connect 54 0 52 0;
#X connect 55 0 61 0;
#X connect 56 0 59 0;
#X connect 57 0 58 0;
#X connect 57 0 58 1;
#X connect 59 0 57 0;
#X connect 60 0 59 1;
#X connect 61 0 54 0;
#X connect 62 0 63 0;
#X connect 63 0 64 0;
#X connect 63 0 67 0;
#X connect 65 0 63 0;
#X connect 66 0 68 0;
#X connect 67 0 69 0;
#X connect 68 0 65 0;
#X connect 69 0 57 0;
#X connect 70 0 69 1;
#X connect 71 0 77 0;
#X connect 71 1 72 0;
#X connect 71 2 74 0;
#X connect 71 3 75 0;
#X connect 71 4 76 0;
#X connect 71 5 73 0;
#X connect 71 6 92 0;
#X connect 71 7 87 0;
#X connect 71 8 89 0;
#X connect 71 9 90 0;
#X connect 71 10 91 0;
#X connect 71 11 88 0;
#X connect 72 0 80 0;
#X connect 73 0 84 0;
#X connect 74 0 81 0;
#X connect 75 0 82 0;
#X connect 76 0 83 0;
#X connect 77 0 79 0;
#X connect 78 0 73 0;
#X connect 78 0 76 0;
#X connect 78 0 75 0;
#X connect 78 0 74 0;
#X connect 78 0 72 0;
#X connect 78 0 77 0;
#X connect 78 0 92 0;
#X connect 78 0 89 0;
#X connect 78 0 87 0;
#X connect 78 0 90 0;
#X connect 78 0 91 0;
#X connect 78 0 88 0;
#X connect 85 0 86 0;
#X connect 86 0 78 0;
#X connect 87 0 94 0;
#X connect 88 0 98 0;
#X connect 89 0 95 0;
#X connect 90 0 96 0;
#X connect 91 0 97 0;
#X connect 92 0 93 0;
