#N canvas 0 23 1680 1005 12;
#X obj 239 436 snapshot~;
#X obj 555 437 snapshot~;
#X obj 320 435 snapshot~;
#X obj 397 439 snapshot~;
#X obj 473 437 snapshot~;
#X obj 168 437 snapshot~;
#X obj 908 324 bng 15 250 50 0 empty empty empty 17 7 0 10 -262144
-1 -1;
#X floatatom 647 271 5 0 2 0 - - -;
#X floatatom 760 268 5 0 5 0 - - -;
#X floatatom 170 518 5 0 0 0 - - -;
#X floatatom 246 519 5 0 0 0 - - -;
#X floatatom 318 519 5 0 0 0 - - -;
#X floatatom 389 524 5 0 0 0 - - -;
#X floatatom 488 526 5 0 0 0 - - -;
#X floatatom 567 526 5 0 0 0 - - -;
#X obj 559 190 hsl 128 15 0 5 0 0 empty empty empty -2 -8 0 10 -262144
-1 -1 0 1;
#X obj 743 188 hsl 128 15 0 5 0 0 empty empty empty -2 -8 0 10 -262144
-1 -1 12700 1;
#X obj 961 185 tgl 15 0 empty empty empty 17 7 0 10 -262144 -1 -1 1
1;
#X obj 956 245 metro 500;
#X floatatom 1216 280 5 0 2 0 - - -;
#X floatatom 1329 277 5 0 5 0 - - -;
#X obj 1128 199 hsl 128 15 0 5 0 0 empty empty empty -2 -8 0 10 -262144
-1 -1 0 1;
#X obj 1312 197 hsl 128 15 0 5 0 0 empty empty empty -2 -8 0 10 -262144
-1 -1 0 1;
#X obj 1160 422 mtof~;
#X obj 1166 480 osc~;
#X obj 1210 422 mtof~;
#X obj 1209 482 osc~;
#X obj 1260 422 mtof~;
#X obj 1259 482 osc~;
#X obj 1310 422 mtof~;
#X obj 1309 482 osc~;
#X obj 1358 422 mtof~;
#X obj 1357 482 osc~;
#X obj 1408 422 mtof~;
#X obj 1407 482 osc~;
#X obj 1277 555 dac~;
#X obj 1253 343 gameAccord~;
#X floatatom 734 735 5 0 2 0 - - -;
#X floatatom 800 739 5 0 5 0 - - -;
#X obj 700 659 hsl 128 15 0 1 0 0 empty empty empty -2 -8 0 10 -262144
-1 -1 0 1;
#X obj 853 658 hsl 128 15 0 1 0 0 empty empty empty -2 -8 0 10 -262144
-1 -1 0 1;
#X obj 663 959 snapshot~;
#X floatatom 667 1047 5 0 0 0 - - -;
#X obj 805 952 bng 15 250 50 0 empty empty empty 17 7 0 10 -262144
-1 -1;
#X obj 858 834 tgl 15 0 empty empty empty 17 7 0 10 -262144 -1 -1 0
1;
#X obj 853 889 metro 500;
#X obj 624 899 dac~;
#X floatatom 393 717 5 0 4 0 - - -;
#X floatatom 477 715 5 0 0 0 - - -;
#X obj 456 669 hsl 128 15 40 80 0 0 empty empty empty -2 -8 0 10 -262144
-1 -1 0 1;
#X msg 478 748 baseKeyMIDI \$1;
#X msg 394 750 oscType \$1;
#X floatatom 309 718 5 0 5 0 - - -;
#X msg 310 751 scale \$1;
#X obj 655 860 gameAccordSynth~;
#X msg 610 679 invert \$1;
#X obj 611 630 tgl 15 0 empty empty empty 17 7 0 10 -262144 -1 -1 0
1;
#X msg 194 751 noiseLevel \$1;
#X floatatom 194 716 5 0 0 0 - - -;
#X obj 193 558 vsl 15 128 0 127 0 0 empty empty empty 0 -9 0 10 -262144
-1 -1 0 1;
#X floatatom 86 717 5 0 0 0 - - -;
#X obj 85 564 vsl 15 128 0 127 0 0 empty empty empty 0 -9 0 10 -262144
-1 -1 0 1;
#X msg 86 752 synthLevel \$1;
#X obj 672 785 belowTresh~;
#X obj 628 324 belowThresh~, f 24;
#X floatatom 352 227 5 0 0 0 - - -;
#X obj 351 69 vsl 15 128 0 127 0 0 empty empty empty 0 -9 0 10 -262144
-1 -1 8600 1;
#X msg 352 262 activeSteps \$1;
#X obj 716 440 snapshot~;
#X obj 1032 441 snapshot~;
#X obj 797 439 snapshot~;
#X obj 874 443 snapshot~;
#X obj 950 441 snapshot~;
#X obj 645 441 snapshot~;
#X floatatom 647 522 5 0 0 0 - - -;
#X floatatom 723 523 5 0 0 0 - - -;
#X floatatom 795 523 5 0 0 0 - - -;
#X floatatom 866 528 5 0 0 0 - - -;
#X floatatom 965 530 5 0 0 0 - - -;
#X floatatom 1044 530 5 0 0 0 - - -;
#X connect 0 0 10 0;
#X connect 1 0 14 0;
#X connect 2 0 11 0;
#X connect 3 0 12 0;
#X connect 4 0 13 0;
#X connect 5 0 9 0;
#X connect 6 0 1 0;
#X connect 6 0 4 0;
#X connect 6 0 3 0;
#X connect 6 0 2 0;
#X connect 6 0 0 0;
#X connect 6 0 5 0;
#X connect 6 0 73 0;
#X connect 6 0 70 0;
#X connect 6 0 68 0;
#X connect 6 0 71 0;
#X connect 6 0 72 0;
#X connect 6 0 69 0;
#X connect 7 0 64 1;
#X connect 8 0 64 2;
#X connect 15 0 7 0;
#X connect 16 0 8 0;
#X connect 17 0 18 0;
#X connect 18 0 6 0;
#X connect 19 0 36 1;
#X connect 20 0 36 2;
#X connect 21 0 19 0;
#X connect 22 0 20 0;
#X connect 23 0 24 0;
#X connect 24 0 35 0;
#X connect 25 0 26 0;
#X connect 26 0 35 1;
#X connect 27 0 28 0;
#X connect 28 0 35 0;
#X connect 29 0 30 0;
#X connect 30 0 35 1;
#X connect 31 0 32 0;
#X connect 32 0 35 0;
#X connect 33 0 34 0;
#X connect 34 0 35 1;
#X connect 36 0 23 0;
#X connect 36 1 25 0;
#X connect 36 2 27 0;
#X connect 36 3 29 0;
#X connect 36 4 31 0;
#X connect 36 5 33 0;
#X connect 37 0 63 1;
#X connect 38 0 63 2;
#X connect 39 0 37 0;
#X connect 40 0 38 0;
#X connect 41 0 42 0;
#X connect 43 0 41 0;
#X connect 44 0 45 0;
#X connect 45 0 43 0;
#X connect 47 0 51 0;
#X connect 48 0 50 0;
#X connect 49 0 48 0;
#X connect 50 0 54 0;
#X connect 51 0 54 0;
#X connect 52 0 53 0;
#X connect 53 0 54 0;
#X connect 54 0 41 0;
#X connect 54 0 46 0;
#X connect 54 0 46 1;
#X connect 55 0 63 0;
#X connect 56 0 55 0;
#X connect 57 0 54 0;
#X connect 58 0 57 0;
#X connect 59 0 58 0;
#X connect 60 0 62 0;
#X connect 61 0 60 0;
#X connect 62 0 54 0;
#X connect 63 0 54 1;
#X connect 63 1 54 2;
#X connect 63 2 54 3;
#X connect 63 3 54 4;
#X connect 63 4 54 5;
#X connect 63 5 54 6;
#X connect 63 6 54 7;
#X connect 63 7 54 8;
#X connect 64 0 5 0;
#X connect 64 1 0 0;
#X connect 64 2 2 0;
#X connect 64 3 3 0;
#X connect 64 4 4 0;
#X connect 64 5 1 0;
#X connect 64 6 73 0;
#X connect 64 7 68 0;
#X connect 64 8 70 0;
#X connect 64 9 71 0;
#X connect 64 10 72 0;
#X connect 64 11 69 0;
#X connect 65 0 67 0;
#X connect 66 0 65 0;
#X connect 67 0 64 0;
#X connect 68 0 75 0;
#X connect 69 0 79 0;
#X connect 70 0 76 0;
#X connect 71 0 77 0;
#X connect 72 0 78 0;
#X connect 73 0 74 0;
