#N canvas 0 23 1680 1005 12;
#X obj 184 841 snapshot~;
#X obj 500 841 snapshot~;
#X obj 265 841 snapshot~;
#X obj 342 841 snapshot~;
#X obj 418 841 snapshot~;
#X obj 113 841 snapshot~;
#X obj 548 728 bng 15 250 50 0 empty empty empty 17 7 0 10 -262144
-1 -1;
#X floatatom 287 691 5 0 2 0 - - -;
#X floatatom 400 691 5 0 5 0 - - -;
#X floatatom 115 922 5 0 0 0 - - -;
#X floatatom 191 922 5 0 0 0 - - -;
#X floatatom 263 922 5 0 0 0 - - -;
#X floatatom 334 922 5 0 0 0 - - -;
#X floatatom 433 922 5 0 0 0 - - -;
#X floatatom 512 922 5 0 0 0 - - -;
#X obj 186 611 hsl 128 15 0 5 0 0 empty empty empty -2 -8 0 10 -262144
-1 -1 0 1;
#X obj 383 610 hsl 128 15 0 5 0 0 empty empty empty -2 -8 0 10 -262144
-1 -1 0 1;
#X obj 601 610 tgl 15 0 empty empty empty 17 7 0 10 -262144 -1 -1 0
1;
#X obj 596 665 metro 500;
#X obj 657 841 snapshot~;
#X obj 575 841 snapshot~;
#X floatatom 590 922 5 0 0 0 - - -;
#X floatatom 669 922 5 0 0 0 - - -;
#X obj 321 1113 snapshot~;
#X floatatom 325 1201 5 0 0 0 - - -;
#X obj 463 1106 bng 15 250 50 0 empty empty empty 17 7 0 10 -262144
-1 -1;
#X obj 516 988 tgl 15 0 empty empty empty 17 7 0 10 -262144 -1 -1 0
1;
#X obj 511 1043 metro 500;
#X msg 55 977 oscType 1;
#X obj 282 1053 dac~;
#X obj 313 1014 gameToneSynth~;
#X msg 37 927 oscType 2;
#X floatatom 1396 628 5 0 2 0 - - -;
#X floatatom 1462 632 5 0 5 0 - - -;
#X obj 1361 552 hsl 128 15 0 1 0 0 empty empty empty -2 -8 0 10 -262144
-1 -1 0 1;
#X obj 1515 551 hsl 128 15 0 1 0 0 empty empty empty -2 -8 0 10 -262144
-1 -1 0 1;
#X obj 1380 713 belowTresh~;
#X obj 1370 887 snapshot~;
#X floatatom 1374 975 5 0 0 0 - - -;
#X obj 1512 880 bng 15 250 50 0 empty empty empty 17 7 0 10 -262144
-1 -1;
#X obj 1565 762 tgl 15 0 empty empty empty 17 7 0 10 -262144 -1 -1
0 1;
#X obj 1560 817 metro 500;
#X obj 1331 827 dac~;
#X obj 1362 788 gameToneSynth~;
#X floatatom 1100 645 5 0 4 0 - - -;
#X floatatom 1184 643 5 0 0 0 - - -;
#X msg 1185 676 baseKeyMIDI \$1;
#X msg 1100 678 oscType \$1;
#X floatatom 1016 646 5 0 5 0 - - -;
#X msg 1017 679 scale \$1;
#X msg 55 660 invert 0;
#X msg 125 656 invert 1;
#X msg 910 679 noiseLevel \$1;
#X floatatom 910 644 5 0 0 0 - - -;
#X obj 909 486 vsl 15 128 0 127 0 0 empty empty empty 0 -9 0 10 -262144
-1 -1 0 1;
#X obj 1182 488 vsl 15 128 40 100 0 0 empty empty empty 0 -9 0 10 -262144
-1 -1 0 1;
#X floatatom 802 645 5 0 0 0 - - -;
#X obj 801 480 vsl 15 128 0 127 0 0 empty empty empty 0 -9 0 10 -262144
-1 -1 0 1;
#X msg 802 680 synthLevel \$1;
#X msg 1222 559 invert \$1;
#X obj 1223 510 tgl 15 0 empty empty empty 17 7 0 10 -262144 -1 -1
0 1;
#X obj 365 728 belowThresh~, f 18;
#X connect 0 0 10 0;
#X connect 1 0 14 0;
#X connect 2 0 11 0;
#X connect 3 0 12 0;
#X connect 4 0 13 0;
#X connect 5 0 9 0;
#X connect 6 0 1 0;
#X connect 6 0 4 0;
#X connect 6 0 3 0;
#X connect 6 0 2 0;
#X connect 6 0 0 0;
#X connect 6 0 5 0;
#X connect 6 0 20 0;
#X connect 6 0 19 0;
#X connect 7 0 61 1;
#X connect 8 0 61 2;
#X connect 9 0 30 1;
#X connect 10 0 30 2;
#X connect 11 0 30 3;
#X connect 12 0 30 4;
#X connect 13 0 30 5;
#X connect 14 0 30 6;
#X connect 15 0 7 0;
#X connect 16 0 8 0;
#X connect 17 0 18 0;
#X connect 18 0 6 0;
#X connect 19 0 22 0;
#X connect 20 0 21 0;
#X connect 21 0 30 7;
#X connect 22 0 30 8;
#X connect 23 0 24 0;
#X connect 25 0 23 0;
#X connect 26 0 27 0;
#X connect 27 0 25 0;
#X connect 28 0 30 0;
#X connect 30 0 23 0;
#X connect 30 0 29 0;
#X connect 30 0 29 1;
#X connect 31 0 30 0;
#X connect 32 0 36 1;
#X connect 33 0 36 2;
#X connect 34 0 32 0;
#X connect 35 0 33 0;
#X connect 36 0 43 1;
#X connect 36 1 43 2;
#X connect 36 2 43 3;
#X connect 36 3 43 4;
#X connect 36 4 43 5;
#X connect 36 5 43 6;
#X connect 36 6 43 7;
#X connect 36 7 43 8;
#X connect 37 0 38 0;
#X connect 39 0 37 0;
#X connect 40 0 41 0;
#X connect 41 0 39 0;
#X connect 43 0 37 0;
#X connect 43 0 42 0;
#X connect 43 0 42 1;
#X connect 44 0 47 0;
#X connect 45 0 46 0;
#X connect 46 0 43 0;
#X connect 47 0 43 0;
#X connect 48 0 49 0;
#X connect 49 0 43 0;
#X connect 50 0 61 0;
#X connect 51 0 61 0;
#X connect 52 0 43 0;
#X connect 53 0 52 0;
#X connect 54 0 53 0;
#X connect 55 0 45 0;
#X connect 56 0 58 0;
#X connect 57 0 56 0;
#X connect 58 0 43 0;
#X connect 59 0 36 0;
#X connect 60 0 59 0;
#X connect 61 0 5 0;
#X connect 61 1 0 0;
#X connect 61 2 2 0;
#X connect 61 3 3 0;
#X connect 61 4 4 0;
#X connect 61 5 1 0;
#X connect 61 6 20 0;
#X connect 61 7 19 0;
