#N canvas 0 25 1440 847 12;
#X floatatom 311 223 5 0 4 0 - - - 0;
#X floatatom 395 221 5 0 0 0 - - - 0;
#X msg 396 254 baseKeyMIDI \$1;
#X msg 311 256 oscType \$1;
#X msg 121 257 noiseLevel \$1;
#X floatatom 121 222 5 0 0 0 - - - 0;
#X obj 120 64 vsl 15 128 0 127 0 0 empty empty empty 0 -9 0 10 #fcfcfc
#000000 #000000 0 1;
#X obj 393 66 vsl 15 128 40 100 0 0 empty empty empty 0 -9 0 10 #fcfcfc
#000000 #000000 0 1;
#X floatatom 13 223 5 0 0 0 - - - 0;
#X obj 12 58 vsl 15 128 0 127 0 0 empty empty empty 0 -9 0 10 #fcfcfc
#000000 #000000 0 1;
#X msg 13 258 synthLevel \$1;
#X msg 433 136 invert \$1;
#X obj 433 87 tgl 15 0 empty empty empty 17 7 0 10 #fcfcfc #000000
#000000 0 1;
#X floatatom 1012 -68 5 0 2 0 - - - 0;
#X floatatom 1164 -66 5 0 5 0 - - - 0;
#X obj 1014 -144 hsl 128 15 -1 2 0 0 empty empty empty -2 -8 0 10 #fcfcfc
#000000 #000000 0 1;
#X obj 1166 -143 hsl 128 15 0 1 0 0 empty empty empty -2 -8 0 10 #fcfcfc
#000000 #000000 0 1;
#X obj 1012 -6 s level;
#X obj 1165 -8 s treshold;
#X obj 800 212 r level;
#X obj 866 212 r treshold;
#X floatatom 564 118 5 0 0 0 - - - 0;
#X obj 562 -81 vsl 15 128 0 12 0 0 empty empty empty 0 -9 0 10 #fcfcfc
#000000 #000000 0 1;
#X msg 565 154 activeSteps \$1;
#X obj 564 78 int;
#X obj 334 -50 tgl 15 1 empty empty empty 17 7 0 10 #fcfcfc #000000
#000000 1 1;
#X floatatom 895 -151 5 0 16 0 - - - 0;
#X msg 896 -67 scale \$1;
#X obj 898 -8 s scale;
#X obj 238 256 r scale;
#X floatatom 703 117 5 0 0 0 - - - 0;
#X obj 701 -82 vsl 15 128 -2 2 0 0 empty empty empty 0 -9 0 10 #fcfcfc
#000000 #000000 0 1;
#X msg 703 152 curve \$1;
#X msg 85 -131 customScale0 6 \, customScale1 4 \, customScale2 0 \,
customScale3 2 \, customScale4 5 \, customScale5 8 \, customScale6
3 \, customScale7 5 \, customScale8 6 \, customScale9 7 \, customScale10
8 \, customScale11 9;
#X obj 434 -51 tgl 15 1 empty empty empty 17 7 0 10 #fcfcfc #000000
#000000 0 1;
#X msg 434 7 playAbove \$1;
#X msg 334 8 playBelow \$1;
#X obj 495 493 print;
#X obj 459 432 bng 15 250 50 0 empty empty empty 17 7 0 10 #fcfcfc
#000000 #000000;
#X obj 563 359 gameTone~, f 27;
#X obj 1077 514 metro 200;
#X obj 1089 481 tgl 15 0 empty empty empty 17 7 0 10 #fcfcfc #000000
#000000 0 1;
#X obj 368 590 snapshot~;
#X floatatom 336 644 5 0 0 0 - - - 0;
#X obj 438 589 snapshot~;
#X floatatom 406 643 5 0 0 0 - - - 0;
#X obj 509 589 snapshot~;
#X floatatom 477 643 5 0 0 0 - - - 0;
#X obj 578 589 snapshot~;
#X floatatom 546 643 5 0 0 0 - - - 0;
#X obj 648 588 snapshot~;
#X floatatom 616 642 5 0 0 0 - - - 0;
#X obj 719 588 snapshot~;
#X floatatom 687 642 5 0 0 0 - - - 0;
#X obj 789 587 snapshot~;
#X floatatom 757 641 5 0 0 0 - - - 0;
#X obj 859 586 snapshot~;
#X floatatom 827 640 5 0 0 0 - - - 0;
#X obj 930 586 snapshot~;
#X floatatom 898 640 5 0 0 0 - - - 0;
#X obj 999 586 snapshot~;
#X floatatom 967 640 5 0 0 0 - - - 0;
#X obj 1069 585 snapshot~;
#X floatatom 1037 639 5 0 0 0 - - - 0;
#X obj 1140 585 snapshot~;
#X floatatom 1108 639 5 0 0 0 - - - 0;
#X connect 0 0 3 0;
#X connect 1 0 2 0;
#X connect 2 0 39 0;
#X connect 3 0 39 0;
#X connect 4 0 39 0;
#X connect 5 0 4 0;
#X connect 6 0 5 0;
#X connect 7 0 1 0;
#X connect 8 0 10 0;
#X connect 9 0 8 0;
#X connect 10 0 39 0;
#X connect 11 0 39 0;
#X connect 12 0 11 0;
#X connect 13 0 17 0;
#X connect 14 0 18 0;
#X connect 15 0 13 0;
#X connect 16 0 14 0;
#X connect 19 0 39 1;
#X connect 20 0 39 2;
#X connect 21 0 23 0;
#X connect 22 0 24 0;
#X connect 22 0 24 1;
#X connect 23 0 39 0;
#X connect 24 0 21 0;
#X connect 25 0 36 0;
#X connect 26 0 27 0;
#X connect 27 0 28 0;
#X connect 29 0 39 0;
#X connect 30 0 32 0;
#X connect 31 0 30 0;
#X connect 32 0 39 0;
#X connect 33 0 39 0;
#X connect 34 0 35 0;
#X connect 35 0 39 0;
#X connect 36 0 39 0;
#X connect 38 0 39 0;
#X connect 39 0 37 0;
#X connect 39 1 42 0;
#X connect 39 2 44 0;
#X connect 39 3 46 0;
#X connect 39 4 48 0;
#X connect 39 5 50 0;
#X connect 39 6 52 0;
#X connect 39 7 54 0;
#X connect 39 8 56 0;
#X connect 39 9 58 0;
#X connect 39 10 60 0;
#X connect 39 11 62 0;
#X connect 39 12 64 0;
#X connect 40 0 64 0;
#X connect 40 0 62 0;
#X connect 40 0 60 0;
#X connect 40 0 58 0;
#X connect 40 0 56 0;
#X connect 40 0 54 0;
#X connect 40 0 52 0;
#X connect 40 0 50 0;
#X connect 40 0 48 0;
#X connect 40 0 46 0;
#X connect 40 0 44 0;
#X connect 40 0 42 0;
#X connect 41 0 40 0;
#X connect 42 0 43 0;
#X connect 44 0 45 0;
#X connect 46 0 47 0;
#X connect 48 0 49 0;
#X connect 50 0 51 0;
#X connect 52 0 53 0;
#X connect 54 0 55 0;
#X connect 56 0 57 0;
#X connect 58 0 59 0;
#X connect 60 0 61 0;
#X connect 62 0 63 0;
#X connect 64 0 65 0;
