#N canvas 541 25 823 847 12;
#X floatatom 311 223 5 0 4 0 - - - 0;
#X floatatom 395 221 5 0 0 0 - - - 0;
#X msg 396 254 baseKeyMIDI \$1;
#X msg 311 256 oscType \$1;
#X msg 121 257 noiseLevel \$1;
#X floatatom 121 222 5 0 0 0 - - - 0;
#X obj 120 64 vsl 15 128 0 127 0 0 empty empty empty 0 -9 0 10 #fcfcfc
#000000 #000000 0 1;
#X obj 393 66 vsl 15 128 40 100 0 0 empty empty empty 0 -9 0 10 #fcfcfc
#000000 #000000 0 1;
#X floatatom 13 223 5 0 0 0 - - - 0;
#X obj 12 58 vsl 15 128 0 127 0 0 empty empty empty 0 -9 0 10 #fcfcfc
#000000 #000000 0 1;
#X msg 13 258 synthLevel \$1;
#X msg 433 136 invert \$1;
#X obj 433 87 tgl 15 0 empty empty empty 17 7 0 10 #fcfcfc #000000
#000000 0 1;
#X floatatom 1012 -68 5 0 2 0 - - - 0;
#X floatatom 1164 -66 5 0 5 0 - - - 0;
#X obj 1000 -144 hsl 128 15 0 1 0 0 empty empty empty -2 -8 0 10 #fcfcfc
#000000 #000000 0 1;
#X obj 1166 -147 hsl 128 15 0 1 0 0 empty empty empty -2 -8 0 10 #fcfcfc
#000000 #000000 0 1;
#X obj 1012 -6 s level;
#X obj 1165 -8 s treshold;
#X obj 828 276 r level;
#X obj 908 273 r treshold;
#X obj 680 468 dac~;
#X floatatom 564 118 5 0 0 0 - - - 0;
#X obj 562 -81 vsl 15 128 0 12 0 0 empty empty empty 0 -9 0 10 #fcfcfc
#000000 #000000 0 1;
#X msg 565 154 activeSteps \$1;
#X obj 564 78 int;
#X floatatom 895 -151 5 0 16 0 - - - 0;
#X msg 896 -67 scale \$1;
#X obj 898 -8 s scale;
#X obj 238 256 r scale;
#X floatatom 703 117 5 0 0 0 - - - 0;
#X obj 701 -82 vsl 15 128 -2 2 0 0 empty empty empty 0 -9 0 10 #fcfcfc
#000000 #000000 0 1;
#X msg 703 152 curve \$1;
#X msg 85 -131 customScale0 6 \, customScale1 4 \, customScale2 0 \,
customScale3 2 \, customScale4 5 \, customScale5 8 \, customScale6
3 \, customScale7 5 \, customScale8 6 \, customScale9 7 \, customScale10
8 \, customScale11 9;
#X obj 572 365 scaleIt~, f 27;
#X msg 769 211 gameSelect 0;
#X msg 882 211 gameSelect 1;
#X text 811 179 0 gameAccord \, 1 gameTone;
#X obj 346 -29 tgl 15 0 empty empty empty 17 7 0 10 #fcfcfc #000000
#000000 0 1;
#X obj 452 -28 tgl 15 0 empty empty empty 17 7 0 10 #fcfcfc #000000
#000000 0 1;
#X msg 346 20 playBelow \$1;
#X msg 452 21 playAbove \$1;
#X obj 605 254 bng 15 250 50 0 empty empty empty 17 7 0 10 #fcfcfc
#000000 #000000;
#X obj 520 457 print;
#X connect 0 0 3 0;
#X connect 1 0 2 0;
#X connect 2 0 34 0;
#X connect 3 0 34 0;
#X connect 4 0 34 0;
#X connect 5 0 4 0;
#X connect 6 0 5 0;
#X connect 7 0 1 0;
#X connect 8 0 10 0;
#X connect 9 0 8 0;
#X connect 10 0 34 0;
#X connect 11 0 34 0;
#X connect 12 0 11 0;
#X connect 13 0 17 0;
#X connect 14 0 18 0;
#X connect 15 0 13 0;
#X connect 16 0 14 0;
#X connect 19 0 34 1;
#X connect 20 0 34 2;
#X connect 22 0 24 0;
#X connect 23 0 25 0;
#X connect 23 0 25 1;
#X connect 24 0 34 0;
#X connect 25 0 22 0;
#X connect 26 0 27 0;
#X connect 27 0 28 0;
#X connect 29 0 34 0;
#X connect 30 0 32 0;
#X connect 31 0 30 0;
#X connect 32 0 34 0;
#X connect 33 0 34 0;
#X connect 34 0 43 0;
#X connect 34 1 21 0;
#X connect 34 2 21 1;
#X connect 35 0 34 0;
#X connect 36 0 34 0;
#X connect 38 0 40 0;
#X connect 39 0 41 0;
#X connect 40 0 34 0;
#X connect 41 0 34 0;
#X connect 42 0 34 0;
