#N canvas 0 25 1440 847 12;
#X obj 376 -13 vsl 15 128 0 12 0 0 empty empty empty 0 -9 0 10 -262144
-1 -1 0 1;
#X obj 471 601 vsl 15 128 0 12 0 0 empty empty empty 0 -9 0 10 -262144
-1 -1 0 1;
#X obj 231 351 threshTest~;
#X obj 765 1201 snapshot~;
#X obj 863 1195 bng 15 250 50 0 empty empty empty 17 7 0 10 -262144
-1 -1;
#X obj 916 1077 tgl 15 0 empty empty empty 17 7 0 10 -262144 -1 -1
0 1;
#X obj 911 1132 metro 500;
#X obj 775 1211 snapshot~;
#X obj 873 1205 bng 15 250 50 0 empty empty empty 17 7 0 10 -262144
-1 -1;
#X obj 926 1087 tgl 15 0 empty empty empty 17 7 0 10 -262144 -1 -1
0 1;
#X obj 921 1142 metro 500;
#X obj 785 1221 snapshot~;
#X obj 883 1215 bng 15 250 50 0 empty empty empty 17 7 0 10 -262144
-1 -1;
#X obj 936 1097 tgl 15 0 empty empty empty 17 7 0 10 -262144 -1 -1
0 1;
#X obj 931 1152 metro 500;
#X obj 468 488 snapshot~;
#X obj 508 454 bng 15 250 50 0 empty empty empty 17 7 0 10 -262144
-1 -1;
#X obj 539 367 tgl 15 0 empty empty empty 17 7 0 10 -262144 -1 -1 1
1;
#X obj 539 413 metro 200;
#X floatatom 371 215 5 0 0 0 - - -;
#X floatatom 468 547 5 0 0 0 - - -;
#X floatatom 62 172 5 0 0 0 - - -;
#X obj 62 -19 vsl 15 128 0 12 0 0 empty empty empty 0 -9 0 10 -262144
-1 -1 12700 1;
#X msg 63 208 activeSteps \$1;
#X obj 62 132 int;
#X obj 375 139 int;
#X floatatom 245 168 5 0 0 0 - - -;
#X obj 193 52 hsl 128 15 -1 1 0 0 empty empty empty -2 -8 0 10 -262144
-1 -1 6300 1;
#X msg 246 204 curve \$1;
#N canvas 0 22 450 278 (subpatch) 0;
#X array array1 12 float 5;
#A 0 0 0.00423059 0.00503105 0.00556777 0.00598296 0.664252 0.00662123
0.00688138 0.00688138 0.0073276 0.00752317 0.00787401;
#X coords 0 1 12 -1 200 140 1;
#X restore 676 35 graph;
#X obj 661 574 tabwrite array1;
#X connect 0 0 25 0;
#X connect 0 0 25 1;
#X connect 2 1 15 0;
#X connect 4 0 3 0;
#X connect 5 0 6 0;
#X connect 6 0 4 0;
#X connect 8 0 7 0;
#X connect 9 0 10 0;
#X connect 10 0 8 0;
#X connect 12 0 11 0;
#X connect 13 0 14 0;
#X connect 14 0 12 0;
#X connect 15 0 20 0;
#X connect 16 0 15 0;
#X connect 17 0 18 0;
#X connect 18 0 16 0;
#X connect 19 0 2 1;
#X connect 19 0 30 1;
#X connect 20 0 1 0;
#X connect 20 0 30 0;
#X connect 21 0 23 0;
#X connect 22 0 24 0;
#X connect 22 0 24 1;
#X connect 23 0 2 0;
#X connect 24 0 21 0;
#X connect 25 0 19 0;
#X connect 26 0 28 0;
#X connect 27 0 26 0;
#X connect 28 0 2 0;
